<svg preserveAspectRatio="xMidYMid meet" data-bbox="34.231 24.997 131.537 150.003" viewBox="34.231 24.997 131.537 150.003" height="50" width="50" xmlns="http://www.w3.org/2000/svg" data-type="color" role="presentation" aria-hidden="true"><defs><style>#comp-jvcej5rx svg [data-color="1"] {fill: #3B888B;}</style></defs>
    <g>
        <path d="M161.214 85.356a4.554 4.554 0 0 0-.419-1.144c-9.663-23.389-32.434-39.981-59.109-40.662V29.612a4.612 4.612 0 0 0-6.921-3.995L62.782 44.084a4.612 4.612 0 0 0 0 7.99L94.765 70.54a4.628 4.628 0 0 0 2.307.619 4.618 4.618 0 0 0 4.614-4.614V52.777c20.457.607 38.209 12.089 47.637 28.894H84.144c-12.258 0-22.23 9.972-22.23 22.23s9.972 22.23 22.23 22.23h36.209c3.391 0 6.151 2.76 6.151 6.151s-2.76 6.151-6.151 6.151H98.516c-12.524 0-23.087 8.466-26.329 19.968-17.127-9.727-28.728-28.104-28.728-49.169 0-2.547-2.067-4.614-4.614-4.614s-4.614 2.067-4.614 4.614C34.231 139.935 57.533 175 100 175c36.263 0 65.768-29.505 65.768-65.768 0-8.428-1.652-16.463-4.554-23.876zM92.458 58.552L74.316 48.078l18.142-10.474v20.948zM100 165.773c-6.781 0-13.257-1.261-19.286-3.46 1.634-8.34 8.991-14.652 17.803-14.652h21.836c8.479 0 15.379-6.899 15.379-15.379 0-8.479-6.899-15.379-15.379-15.379H84.144c-7.17 0-13.003-5.833-13.003-13.003s5.833-13.003 13.003-13.003h69.286c1.982 5.759 3.11 11.911 3.11 18.334 0 31.179-25.362 56.542-56.54 56.542z" fill="#1d4446" data-color="1"></path>
    </g>
</svg>