<svg preserveAspectRatio="xMidYMid meet" data-bbox="46.18 25 107.64 150" viewBox="46.18 25 107.64 150" height="50" width="50" xmlns="http://www.w3.org/2000/svg" data-type="color" role="presentation" aria-hidden="true"><defs><style>#comp-jvcejxnw svg [data-color="1"] {fill: #3B888B;}</style></defs>
    <g>
        <path d="M89.535 25.499a4.486 4.486 0 0 0-4.485 4.485v31.395c0 6.487-4.178 11.967-9.966 14.031V29.485c0-2.476-2.009-4.485-4.485-4.485s-4.485 2.009-4.485 4.485v46.236c-6.301-1.758-10.964-7.488-10.964-14.342V29.984c0-2.476-2.009-4.485-4.485-4.485s-4.485 2.009-4.485 4.485v31.395c0 11.829 8.639 21.654 19.934 23.56v9.33c0 .011.003.02.003.031-1.807 1.364-2.993 3.51-2.993 5.949v65.78a7.474 7.474 0 0 0 7.475 7.475 7.474 7.474 0 0 0 7.475-7.475v-65.78c0-2.439-1.185-4.585-2.993-5.949 0-.011.003-.02.003-.031v-9.501c10.804-2.301 18.936-11.91 18.936-23.389V29.984a4.486 4.486 0 0 0-4.485-4.485z" fill="#1d4446" data-color="1"></path>
        <path d="M149.335 25.499c-20.609 0-37.375 16.766-37.375 37.375V115.2h32.89v44.85c0 3.297-2.683 5.98-5.98 5.98s-5.98-2.683-5.98-5.98v-25.415c0-2.476-2.009-4.485-4.485-4.485s-4.485 2.009-4.485 4.485v25.415c0 8.243 6.707 14.95 14.95 14.95s14.95-6.707 14.95-14.95V25.499h-4.485zm-4.485 80.731h-23.92V62.874c0-14.138 10.38-25.894 23.92-28.052v71.408z" fill="#1d4446" data-color="1"></path>
    </g>
</svg>