<svg preserveAspectRatio="xMidYMid meet" data-bbox="18.597 25 162.806 150" viewBox="18.597 25 162.806 150" height="50" width="50" xmlns="http://www.w3.org/2000/svg" data-type="color" role="presentation" aria-hidden="true"><defs><style>#comp-jvcelxkq svg [data-color="1"] {fill: #3B888B;}</style></defs>
    <g>
        <path d="M149.357 26.739c-18.461-4.98-37.801 1.362-49.327 15.558C87.041 25.872 66.55 22.399 50.721 26.67c-19.814 5.353-32.124 21.657-32.124 42.55 0 27.975 27.736 55.079 62.852 89.394 4.977 4.867 10.107 9.88 15.326 15.057.891.885 2.06 1.329 3.225 1.329s2.334-.444 3.225-1.329a2857.6 2857.6 0 0 1 15.302-15.031c35.128-34.326 62.876-61.437 62.876-89.42 0-20.864-12.28-37.14-32.046-42.481zm-37.477 62.7l2.304 13.421-12.053-6.336c-.668-.349-1.401-.525-2.131-.525s-1.463.176-2.131.525l-12.053 6.336 2.304-13.421a4.583 4.583 0 0 0-1.317-4.053l-9.752-9.505 13.478-1.958a4.575 4.575 0 0 0 3.445-2.504L100 59.208l6.027 12.211a4.579 4.579 0 0 0 3.445 2.504l13.478 1.958-9.752 9.505a4.584 4.584 0 0 0-1.318 4.053zm.248 62.653A3274.367 3274.367 0 0 0 100 163.981c-4.125-4.071-8.187-8.038-12.151-11.916-33.576-32.809-60.096-58.724-60.096-82.845 0-19.805 13.099-30.398 25.355-33.709a39.835 39.835 0 0 1 10.354-1.356c11.141 0 23.059 4.596 30.87 15.85l-7.503 15.203-20.276 2.948a4.576 4.576 0 0 0-2.537 7.809L78.69 90.262l-3.466 20.193a4.58 4.58 0 0 0 1.821 4.48 4.594 4.594 0 0 0 4.822.349L100 105.749l18.133 9.535a4.587 4.587 0 0 0 4.822-.348 4.58 4.58 0 0 0 1.821-4.48l-3.466-20.193 14.673-14.297a4.58 4.58 0 0 0-2.537-7.809l-20.276-2.948-7.496-15.189c10.319-14.758 28.293-17.951 41.295-14.44 15.829 4.274 25.277 16.852 25.277 33.641.001 24.126-26.528 50.05-60.118 82.871z" fill="#1d4446" data-color="1"></path>
    </g>
</svg>