<svg preserveAspectRatio="xMidYMid meet" data-bbox="53.296 25 93.406 150.001" viewBox="53.296 25 93.406 150.001" height="50" width="50" xmlns="http://www.w3.org/2000/svg" data-type="color" role="presentation" aria-hidden="true"><defs><style>#comp-jvcekp4d svg [data-color="1"] {fill: #3B888B;}</style></defs>
    <g>
        <path d="M102.699 26.16c-1.367-1.546-4.032-1.546-5.399 0-1.797 2.036-44.004 50.164-44.004 75.043 0 13.46 5.812 26.27 15.945 35.147 7.602 6.658 17.136 10.62 27.159 11.394v23.658a3.599 3.599 0 1 0 7.198 0v-23.636a46.255 46.255 0 0 0 24.032-8.905c11.942-8.778 19.072-22.854 19.072-37.658.001-24.879-42.206-73.007-44.003-75.043zm-6.298 52.447L79.111 61.34c5.879-8.567 12.146-16.684 17.29-22.966v40.233zm7.198-40.234c5.165 6.308 11.464 14.465 17.364 23.072l-17.364 17.206V38.373zm-29.616 92.561a39.535 39.535 0 0 1-13.488-29.731c0-8.46 6.447-21.184 14.547-33.756l21.359 21.328v26.768L78.754 97.896c-1.406-1.406-3.683-1.406-5.089 0s-1.406 3.683 0 5.089l22.736 22.736v14.822a39.455 39.455 0 0 1-22.418-9.609zm49.385 2.126a39.114 39.114 0 0 1-19.769 7.473v-14.811l22.739-22.736c1.406-1.406 1.406-3.683 0-5.089s-3.683-1.406-5.089 0L103.6 115.544V88.785l21.426-21.232c8.067 12.538 14.48 25.214 14.48 33.65-.001 12.52-6.032 24.431-16.138 31.857z" fill="#1d4446" data-color="1"></path>
    </g>
</svg>