<svg preserveAspectRatio="xMidYMid meet" data-bbox="36.993 14.474 126 171.003" viewBox="36.993 14.474 126 171.003" height="100" width="100" xmlns="http://www.w3.org/2000/svg" data-type="color" role="presentation" aria-hidden="true" aria-labelledby="svgcid--xwwaa8-oeul6a"><defs><style>#comp-jvcei3jf svg [data-color="1"] {fill: #C3BCAC;}</style></defs><title id="svgcid--xwwaa8-oeul6a"></title>
    <g>
        <path d="M86.605 64.232c10.121 24.878 9.625 54.851 10.617 81.528.496 12.789.695 25.577-2.084 38.066a1.285 1.285 0 0 0 .893 1.599c.695.2 1.389-.2 1.588-.899 2.778-12.789 2.778-25.777 2.084-38.766-.893-26.876-.198-57.149-10.418-82.227-.696-1.599-3.375-.9-2.68.699z" fill="#8CC63F" data-color="1"></path>
        <path d="M100 165.542c.496-16.086 8.533-27.875 17.761-40.164 8.732-11.889 18.852-22.78 30.164-32.072 1.389-1.099-.496-2.798-1.885-1.898-12.502 9.991-22.821 22.28-32.347 35.069-9.029 12.089-15.975 23.679-16.372 39.065 0 .699.496 1.399 1.389 1.399.794 0 1.29-.7 1.29-1.399z" fill="#8CC63F" data-color="1"></path>
        <path d="M128.576 111.69c1.885-9.092-.198-20.182-3.87-28.575-.695-1.599-2.977-.2-2.282 1.399 3.274 7.893 5.358 18.284 3.473 26.676-.297 1.599 2.382 2.298 2.679.5z" fill="#8CC63F" data-color="1"></path>
        <path d="M113.494 129.973c-.695-7.893-1.091-15.786-1.786-23.479-.198-1.798-2.778-1.798-2.58 0 .695 7.893 1.091 15.786 1.786 23.479.1 1.699 2.68 1.699 2.58 0z" fill="#8CC63F" data-color="1"></path>
        <path d="M117.662 125.577c11.014-2.298 21.73-5.295 32.347-8.792 1.588-.5.893-3.197-.695-2.598-10.617 3.497-21.432 6.494-32.347 8.792-1.587.5-.893 2.998.695 2.598z" fill="#8CC63F" data-color="1"></path>
        <path d="M106.846 141.363c9.029-1.199 18.158-.5 26.79 2.298.695.2 1.389-.2 1.588-.899a1.285 1.285 0 0 0-.893-1.599c-8.93-2.798-18.257-3.697-27.485-2.498-1.587.201-1.786 2.898 0 2.698z" fill="#8CC63F" data-color="1"></path>
        <path d="M87.994 62.933c-14.487-12.089-10.418-37.167 4.664-46.159l-1.885-1.599c-1.091 6.694.695 12.289 2.084 18.783 2.084 10.191 1.389 20.682-5.259 29.274-1.091 1.399.893 3.197 1.885 1.898 4.167-5.295 6.648-11.59 6.946-18.384.893-10.491-4.664-20.482-3.175-30.673.198-.699-.198-1.399-1.091-1.599-.397 0-.695 0-.893.2-16.769 9.791-21.035 36.967-5.259 50.355 1.487.901 3.372-.997 1.983-2.096z" fill="#8CC63F" data-color="1"></path>
        <path d="M94.443 80.317c2.282-13.188 7.442-26.976 20.539-32.571l-1.885-.899c2.977 15.286-7.144 27.176-20.043 33.47-1.588.699-.198 2.997 1.389 2.298 14.09-6.794 24.409-20.182 21.234-36.468-.198-.699-.893-1.099-1.588-.899-.198 0-.198 0-.397.2-13.494 5.795-19.349 20.382-21.631 34.17-.396 1.798 2.085 2.498 2.382.699z" fill="#8CC63F" data-color="1"></path>
        <path d="M87.2 65.431c-13.098 2.598-28.576 2.798-38.697-7.493l-.198 2.098c13.197-8.093 27.683-3.297 38.3 6.794.496.5 1.389.5 1.885 0s.496-1.199 0-1.798c-11.51-10.89-27.187-15.986-41.475-7.194-.695.4-.893 1.199-.496 1.798l.198.2c10.617 10.99 26.989 10.89 41.178 8.193 1.686-.3.992-2.998-.695-2.598z" fill="#8CC63F" data-color="1"></path>
        <path d="M148.123 85.113c1.389-2.798 5.06-3.996 7.839-2.498 2.778 1.599 3.969 5.095 2.481 7.893-1.389 2.798-5.06 3.996-7.839 2.498-2.58-1.399-3.87-4.696-2.58-7.493" fill="#8CC63F" data-color="1"></path>
        <path d="M149.314 85.813c2.58-4.396 9.922-1.599 7.839 3.697-.695 2.098-2.977 3.297-5.06 2.798-.198 0-.397-.2-.496-.2a4.94 4.94 0 0 1-2.283-6.295c.496-1.599-1.885-2.298-2.58-.699-1.191 3.697.496 7.693 3.969 9.292 3.473 1.399 7.343-.4 8.732-3.897v-.2c1.588-3.297.198-7.194-3.175-8.792h-.198c-3.274-1.599-7.343-.4-9.426 2.798-.397.699-.198 1.399.496 1.798.793.399 1.686.399 2.182-.3z" fill="#8CC63F" data-color="1"></path>
        <path d="M107.144 97.902c-2.084 1.898-2.282 5.095-.397 7.194.397.5.893.899 1.588 1.199 3.175 1.199 6.747-2.098 6.251-5.395s-1.786-4.696-6.45-3.497l-.992.499z" fill="#8CC63F" data-color="1"></path>
        <path d="M106.35 96.803c-2.481 2.298-2.778 5.995-.695 8.592 1.885 2.498 5.557 2.997 8.037 1.099.397-.2.695-.5.893-.899 2.282-2.498 2.282-6.294.198-8.792-2.084-2.098-5.755-1.399-8.037 0-.695.4-.893 1.199-.496 1.798.397.699 1.191.899 1.786.5 1.191-.699 3.274-1.399 4.564-.5 1.191 1.399 1.389 3.297.397 4.696-1.191 1.898-3.969 2.598-5.358.5-1.091-1.599-.893-3.697.496-5.095 1.093-1-.594-2.898-1.785-1.899z" fill="#8CC63F" data-color="1"></path>
        <path d="M152.787 109.292c-2.778-.4-3.671 3.297-2.977 5.595.695 2.298 3.671 3.897 6.053 3.996 2.481.2 5.259-.899 5.755-3.297a4.922 4.922 0 0 0-2.282-4.696c-1.588-.899-3.274-1.399-5.259-1.599h-1.29z" fill="#8CC63F" data-color="1"></path>
        <path d="M152.787 108.093c-3.473-.2-4.862 3.697-4.366 6.694.496 3.697 4.564 5.795 8.037 5.595 3.473-.2 7.144-2.498 6.45-6.294-.893-4.596-5.755-5.395-9.625-5.995-1.588-.2-2.282 2.298-.695 2.598 1.885.2 3.671.5 5.358 1.199 1.389.699 2.778 2.098 2.282 3.697-.496 1.199-1.588 1.898-2.778 2.098-2.084.4-4.167-.4-5.755-1.898-1.091-1.399-1.191-5.095 1.191-5.095.695 0 1.191-.699 1.191-1.399-.199-.701-.695-1.2-1.29-1.2z" fill="#8CC63F" data-color="1"></path>
        <path d="M137.804 138.766c-4.167 1.099-3.671 4.196-2.778 6.494 1.191 2.098 3.671 3.297 5.953 2.798 1.091-.2 2.084-.5 2.977-1.199 1.588-1.599 1.885-3.996.695-5.995-1.191-1.898-3.274-2.798-5.557-2.498l-1.29.4z" fill="#8CC63F" data-color="1"></path>
        <path d="M137.506 137.467c-2.778.5-4.663 3.297-4.167 6.095 0 .4.198.5.198.899 1.091 3.697 4.862 5.795 8.533 4.696 3.175-.5 5.259-3.697 4.663-6.794-.198-.699-.397-1.199-.496-1.798-1.983-3.398-5.258-3.798-8.731-3.098-1.786.2-1.091 2.798.695 2.498 1.786-.4 3.671-.5 5.06 1.099 1.389 1.199 1.389 3.297.198 4.696-.496.5-1.191.899-2.084 1.099-2.282.5-4.564-.699-5.259-2.798-.695-1.199-.198-2.997 1.191-3.497.397-.2.695-.2 1.091-.4.695-.4.893-1.099.496-1.798-.395-.699-.891-.899-1.388-.899z" fill="#8CC63F" data-color="1"></path>
        <path d="M122.127 77.32c-4.167 1.099-3.671 4.196-2.778 6.494 1.191 2.098 3.671 3.297 5.953 2.798 1.091-.2 2.084-.5 2.977-1.199 1.588-1.599 1.885-3.996.695-5.995-1.191-1.898-3.274-2.798-5.557-2.498l-1.29.4z" fill="#8CC63F" data-color="1"></path>
        <path d="M121.829 76.121c-2.778.5-4.664 3.297-4.167 6.095 0 .4.198.5.198.899 1.091 3.697 4.862 5.795 8.533 4.696 3.175-.5 5.259-3.697 4.664-6.794-.198-.699-.397-1.199-.496-1.798-1.985-3.398-5.259-3.797-8.732-3.098-1.786.2-1.091 2.798.695 2.498 1.786-.4 3.671-.5 5.06 1.099 1.389 1.199 1.389 3.297.198 4.696-.496.5-1.191.899-2.084 1.099-2.282.5-4.564-.699-5.259-2.798-.695-1.199-.198-2.997 1.191-3.497.397-.2.695-.2 1.091-.4.695-.4.893-1.099.496-1.798-.396-.699-.892-.899-1.388-.899z" fill="#8CC63F" data-color="1"></path>
        <path d="M98.809 136.068c-8.236-26.676-31.652-52.753-60.427-53.852-.893 0-1.389.5-1.389 1.199.397 28.974 29.469 64.543 60.626 55.95.695-.2 1.091-.899.893-1.599-.198-.699-.893-1.099-1.588-.899-18.654 5.095-36.415-7.893-46.834-22.48-4.664-6.294-7.839-13.288-9.625-20.882-1.389-6.794-2.084-9.492 5.953-7.893 4.664 1.099 9.029 2.598 13.197 4.896 16.769 8.792 31.057 28.775 36.415 46.459.198.699.893 1.099 1.588.899.894-.399 1.39-1.099 1.191-1.798z" fill="#8CC63F" data-color="1"></path>
        <path d="M38.184 86.312c20.738 15.087 40.086 33.271 58.343 51.255.496.5 1.389.5 1.885 0s.496-1.199 0-1.798c-18.356-18.084-37.903-36.468-58.84-51.754-1.388-1-2.579 1.198-1.388 2.297z" fill="#8CC63F" data-color="1"></path>
    </g>
</svg>